HIERARCHY
ROOT Hips
{
	OFFSET 0.00000 0.00000 0.00000
	CHANNELS 6 Xposition Yposition Zposition Zrotation Yrotation Xrotation 
	JOINT LHipJoint
	{
		OFFSET 0 0 0
		CHANNELS 3 Zrotation Yrotation Xrotation
		JOINT LeftHip
		{
			OFFSET 1.62329 -1.80800 0.67318
			CHANNELS 3 Zrotation Yrotation Xrotation
			JOINT LeftKnee
			{
				OFFSET 2.57139 -7.06484 0.00000
				CHANNELS 3 Zrotation Yrotation Xrotation
				JOINT LeftAnkle
				{
					OFFSET 2.52017 -6.92413 0.00000
					CHANNELS 3 Zrotation Yrotation Xrotation
					JOINT LeftToe
					{
						OFFSET 0.23295 -0.64001 2.10214
						CHANNELS 3 Zrotation Yrotation Xrotation
						End Site
						{
							OFFSET 0.00000 -0.00000 1.10139
						}
					}
				}
			}
		}
	}
	JOINT RHipJoint
	{
		OFFSET 0 0 0
		CHANNELS 3 Zrotation Yrotation Xrotation
		JOINT RightHip
		{
			OFFSET -1.48061 -1.80800 0.67318
			CHANNELS 3 Zrotation Yrotation Xrotation
			JOINT RightKnee
			{
				OFFSET -2.63258 -7.23296 0.00000
				CHANNELS 3 Zrotation Yrotation Xrotation
				JOINT RightAnkle
				{
					OFFSET -2.54779 -7.00000 0.00000
					CHANNELS 3 Zrotation Yrotation Xrotation
					JOINT RightToe
					{
						OFFSET -0.23067 -0.63376 2.12161
						CHANNELS 3 Zrotation Yrotation Xrotation
						End Site
						{
							OFFSET -0.00000 -0.00000 1.11000
						}
					}
				}
			}
		}
	}
	JOINT lowerback
	{
		OFFSET 0 0 0
		CHANNELS 3 Zrotation Yrotation Xrotation
		JOINT Chest
		{
			OFFSET -0.02108 2.07573 -0.16981
			CHANNELS 3 Zrotation Yrotation Xrotation
			JOINT Chest2
			{
				OFFSET 0.05070 2.08439 -0.03141
				CHANNELS 3 Zrotation Yrotation Xrotation
				JOINT lowerneck
				{
					OFFSET 0 0 0
					CHANNELS 3 Zrotation Yrotation Xrotation
					JOINT Neck
					{
						OFFSET -0.10731 1.60408 0.31370
						CHANNELS 3 Zrotation Yrotation Xrotation
						JOINT Head
						{
							OFFSET 0.08411 1.65679 -0.30822
							CHANNELS 3 Zrotation Yrotation Xrotation
							End Site
							{
								OFFSET 0.03911 1.69149 -0.14146
							}
						}
					}
				}
				JOINT LeftCollar
				{
					OFFSET 0 0 0
					CHANNELS 3 Zrotation Yrotation Xrotation
					JOINT LeftShoulder
					{
						OFFSET 3.52315 0.73219 -0.54694
CHANNELS 3 Zrotation Xrotation Yrotation
						JOINT LeftElbow
						{
OFFSET 0 -5.324620 -0.000000
CHANNELS 3 Zrotation Xrotation Yrotation
							JOINT LeftWrist
							{
OFFSET 0 -3.484020 -0.000000
CHANNELS 3 Zrotation Xrotation Yrotation
								JOINT lhand
								{
									OFFSET 0 0 0
CHANNELS 3 Zrotation Xrotation Yrotation
									JOINT LFingers
									{
OFFSET 0 -0.572480 -0.000000
CHANNELS 3 Zrotation Xrotation Yrotation
										End Site
										{
OFFSET 0 -0.461540 -0.000000
										}
									}
								}
								JOINT LThumb
								{
OFFSET 0 0.000000 0.000000
CHANNELS 3 Zrotation Xrotation Yrotation
									End Site
									{
OFFSET 0 -0.468590 0.468590
									}
								}
							}
						}
					}
				}
				JOINT RightCollar
				{
					OFFSET 0 0 0
					CHANNELS 3 Zrotation Yrotation Xrotation
					JOINT RightShoulder
					{
						OFFSET -3.41766 0.93592 -0.10019
CHANNELS 3 Zrotation Xrotation Yrotation
						JOINT RightElbow
						{
OFFSET 0 -5.335890 -0.000000
CHANNELS 3 Zrotation Xrotation Yrotation
							JOINT RightWrist
							{
OFFSET 0 -3.641340 -0.000000
CHANNELS 3 Zrotation Xrotation Yrotation
								JOINT rhand
								{
									OFFSET 0 0 0
CHANNELS 3 Zrotation Xrotation Yrotation
									JOINT RFingers
									{
OFFSET 0 -0.734810 -0.000000
CHANNELS 3 Zrotation Xrotation Yrotation
										End Site
										{
OFFSET 0 -0.592420 -0.000000
										}
									}
								}
								JOINT RThumb
								{
OFFSET 0 0.000000 0.000000
CHANNELS 3 Zrotation Xrotation Yrotation
									End Site
									{
OFFSET 0 -0.601470 0.601470
									}
								}
							}
						}
					}
				}
			}
		}
	}
}
MOTION
Frames: 5
Frame Time: 0.008333333333333333
0.133600 17.790700 12.063300 177.304000 -3.479000 -170.810000 0.000000 0.000000 0.000000 -22.570700 -10.816800 -9.974900 1.393800 7.469000 21.112600 0.646500 -3.175400 -14.441000 0.079500 -1.819000 -5.005700 0.000000 0.000000 0.000000 20.475200 9.716300 -15.284600 -2.790500 -10.347900 30.110800 -1.281000 5.035500 -20.327200 -0.629500 -5.076700 14.127400 -4.302100 -1.328600 -1.255000 1.750600 -1.770200 -1.492600 4.203300 -0.854400 -0.647100 -9.076600 -2.643600 -14.311300 0.248700 4.569700 40.434500 3.092600 2.221300 17.132600 0.000000 0.000000 0.000000 1.741100 2.944800 -17.517200 15.679300 -25.083900 3.508900 19.294800 12.289700 -23.334400 0.000000 0.000000 0.000000 -7.125000 0.000000 0.000000 -10.420200 54.240900 2.386200 0.000000 0.000000 0.000000 -6.281300 3.760100 17.778700 -18.437300 -28.713500 -4.757500 -17.255200 17.080400 -3.607900 0.000000 0.000000 0.000000 7.125000 0.000000 -0.000000 7.099200 26.191300 3.260400
0.135403 17.799480 12.067021 177.257910 -3.546560 -170.814781 0.000000 0.000000 0.000000 -22.630747 -10.590911 -10.005929 1.380794 7.435482 21.011952 0.637691 -3.324650 -14.321154 0.104995 -2.088815 -5.751046 0.000000 0.000000 0.000000 20.435468 9.696027 -15.322753 -2.800349 -10.364613 30.165812 -1.292624 4.947386 -20.431204 -0.563888 -4.809417 13.365859 -4.358075 -1.333098 -1.124766 1.745654 -1.781506 -1.524682 4.233650 -0.856172 -0.750646 -9.123238 -2.668001 -14.347898 0.285760 4.559941 40.498223 3.121298 2.216066 17.177069 0.000000 0.000000 0.000000 1.705380 2.989516 -17.393800 15.684969 -25.091640 3.511298 19.147082 12.379356 -23.470495 0.000000 0.000000 0.000000 -7.125000 0.000000 0.000000 -10.628240 54.350282 2.463161 0.000000 0.000000 0.000000 -6.359959 3.789133 17.835267 -18.395349 -28.660439 -4.737365 -17.343894 17.066777 -3.780523 0.000000 0.000000 0.000000 7.125000 0.000000 0.000000 7.023825 26.010312 3.255326
0.136496 17.787003 12.068666 177.310536 -3.569203 -170.852618 0.000000 0.000000 0.000000 -22.618106 -10.309081 -10.086012 1.375742 7.422514 20.973331 0.632048 -3.298676 -14.258582 0.166399 -2.623750 -7.233061 0.000000 0.000000 0.000000 20.507918 9.693224 -15.328531 -2.807236 -10.376255 30.204040 -1.290062 4.923202 -20.412496 -0.568271 -4.827798 13.418021 -4.299287 -1.320723 -1.144200 1.742218 -1.762460 -1.471004 4.195674 -0.849193 -0.688087 -9.070074 -2.683246 -14.343649 0.154029 4.568665 40.464835 3.052259 2.209935 17.164821 0.000000 0.000000 0.000000 1.733050 2.937307 -17.365151 15.681267 -25.086496 3.509693 18.913367 12.354809 -23.581969 0.000000 0.000000 0.000000 -7.125000 0.000000 0.000000 -10.914263 54.417949 2.548641 0.000000 0.000000 0.000000 -6.333216 3.770337 17.672212 -18.433110 -28.708119 -4.755479 -17.253941 17.403894 -3.784011 0.000000 0.000000 0.000000 7.125000 0.000000 0.000000 7.091617 26.008334 3.287507
0.138056 17.789811 12.069984 177.223992 -3.577495 -170.808082 0.000000 0.000000 0.000000 -22.706175 -10.262467 -10.134144 1.371339 7.411124 20.939099 0.628105 -3.342286 -14.207624 0.184696 -2.756233 -7.601408 0.000000 0.000000 0.000000 20.405939 9.734744 -15.372757 -2.814903 -10.389195 30.246614 -1.290993 4.952178 -20.417351 -0.618566 -5.033338 14.003754 -4.421499 -1.331925 -1.147091 1.736740 -1.777350 -1.494717 4.259182 -0.854892 -0.706142 -9.078768 -2.660241 -14.246596 0.124655 4.610173 40.422482 3.043547 2.227548 17.115608 0.000000 0.000000 0.000000 1.702416 2.997903 -17.322756 15.685710 -25.092602 3.511603 18.946685 12.263825 -23.460733 0.000000 0.000000 0.000000 -7.125000 0.000000 0.000000 -10.828364 54.301900 2.497631 0.000000 0.000000 0.000000 -6.366787 3.750064 17.698014 -18.385081 -28.647444 -4.732401 -17.449517 17.422706 -3.444458 0.000000 0.000000 0.000000 7.125000 0.000000 0.000000 6.960050 26.357741 3.168387
0.136908 17.788765 12.069136 177.193284 -3.590730 -170.811962 0.000000 0.000000 0.000000 -22.741302 -10.227037 -10.059358 1.355012 7.368743 20.812452 0.624820 -3.396543 -14.163687 0.172924 -2.662439 -7.341266 0.000000 0.000000 0.000000 20.359451 9.792648 -15.409764 -2.837682 -10.427615 30.372862 -1.305938 4.930944 -20.541769 -0.587000 -4.905577 13.639425 -4.418825 -1.329400 -1.176933 1.702927 -1.770909 -1.454251 4.221283 -0.853451 -0.649541 -9.086731 -2.657798 -14.257438 0.171542 4.576371 40.385631 3.057032 2.215382 17.096280 0.000000 0.000000 0.000000 1.760345 2.993166 -17.344257 15.635646 -25.024125 3.490407 18.977434 12.082636 -23.006041 0.000000 0.000000 0.000000 -7.125000 0.000000 0.000000 -10.605669 53.848177 2.327280 0.000000 0.000000 0.000000 -6.334417 3.782662 17.844278 -18.473576 -28.759302 -4.774948 -17.719054 17.157956 -3.222866 0.000000 0.000000 0.000000 7.125000 0.000000 0.000000 6.766287 26.584063 3.042796
